<?xml version="1.0" encoding="UTF-8" standalone="no"?>
<!DOCTYPE svg PUBLIC "-//W3C//DTD SVG 1.1//EN" "http://www.w3.org/Graphics/SVG/1.1/DTD/svg11.dtd">

<!-- Created with Vectornator (http://vectornator.io/) -->
<svg height="100%" stroke-miterlimit="10" style="fill-rule:nonzero;clip-rule:evenodd;stroke-linecap:round;stroke-linejoin:round;" version="1.1" viewBox="0 0 269.325 269.325" width="100%" xml:space="preserve" xmlns="http://www.w3.org/2000/svg" xmlns:vectornator="http://vectornator.io" xmlns:xlink="http://www.w3.org/1999/xlink">
<metadata>
<vectornator:setting key="IsTimeLapseWatermarkDisabled" value="false"/>
<vectornator:setting key="UndoHistoryDisabled" value="true"/>
<vectornator:setting key="VNDimensionsVisible" value="true"/>
<vectornator:setting key="VNSnapToGuides" value="true"/>
<vectornator:setting key="WDCMYKEnabledKey" value="false"/>
<vectornator:setting key="WDDisplayWhiteBackground" value="false"/>
<vectornator:setting key="WDDynamicGuides" value="false"/>
<vectornator:setting key="WDGuidesVisible" value="false"/>
<vectornator:setting key="WDIsolateActiveLayer" value="false"/>
<vectornator:setting key="WDOutlineMode" value="false"/>
<vectornator:setting key="WDRulersVisible" value="true"/>
<vectornator:setting key="WDSnapToEdges" value="false"/>
<vectornator:setting key="WDSnapToGrid" value="false"/>
<vectornator:setting key="WDSnapToPoints" value="false"/>
<vectornator:setting key="WDUnits" value="Millimeters"/>
</metadata>
<defs>
<filter color-interpolation-filters="sRGB" filterUnits="userSpaceOnUse" height="88.2303" id="Filter" width="76.9655" x="146.358" y="39.4934">
<feDropShadow dx="5.81268" dy="3.90035" flood-color="#000000" flood-opacity="1" in="SourceGraphic" result="Shadow" stdDeviation="3.54752"/>
</filter>
<filter color-interpolation-filters="sRGB" filterUnits="userSpaceOnUse" height="151.823" id="Filter_2" width="121.681" x="58.2833" y="76.436">
<feDropShadow dx="5.81268" dy="3.90035" flood-color="#a30f0f" flood-opacity="0.760929" in="SourceGraphic" result="Shadow" stdDeviation="2.57554"/>
</filter>
<filter color-interpolation-filters="sRGB" filterUnits="userSpaceOnUse" height="138.116" id="Filter_3" width="63.538" x="52.876" y="92.5211">
<feDropShadow dx="6.64306" dy="4.45755" flood-color="#a30f0f" flood-opacity="0.760929" in="SourceGraphic" result="Shadow" stdDeviation="4.12791"/>
</filter>
</defs>
<clipPath id="ArtboardFrame">
<rect height="269.325" width="269.325" x="0" y="0"/>
</clipPath>
<g clip-path="url(#ArtboardFrame)" id="Layer-1" vectornator:layerName="Layer 1">
<g opacity="1">
<g opacity="0.982558">
<path d="M228.675 228.895C215.841 241.252 201.034 250.377 185.243 256.298C137.786 274.095 81.4489 262.953 43.1297 223.635C-7.93935 171.235-7.66718 88.6322 43.7376 39.1371C95.1423-10.358 178.214-8.00308 229.283 44.397C280.352 96.7971 280.08 179.4 228.675 228.895Z" fill="#fafafa" fill-rule="evenodd" stroke="none"/>
<path d="M134.719 1.4375C115.494 1.05691 96.1939 4.73758 78.375 12.6562C67.3169 17.5704 56.9724 24.0789 47.7188 31.875C37.1893 40.746 28.0468 51.2498 20.8125 62.9688C12.6977 76.114 7.04606 90.6981 4.03125 105.844C2.3896 114.091 1.52311 122.503 1.46875 130.906C1.41439 139.31 2.16055 147.7 3.6875 155.969C11.9597 200.763 43.1765 239.074 84.9375 257.094C101.446 264.217 119.367 268.058 137.344 268.312C164.015 268.69 190.587 261.108 212.812 246.312C217.476 243.208 221.93 239.803 226.156 236.125C227.299 235.13 228.423 234.128 229.531 233.094C229.81 232.834 229.553 233.085 231.188 231.531C232.59 230.202 232.658 228.057 231.438 226.594C231.903 226.123 232.385 225.664 232.844 225.188C235.382 222.549 237.791 219.815 240.094 216.969C248.383 206.723 255.062 195.182 259.781 182.875C271.702 151.79 270.897 116.668 258.25 85.9375C252.045 70.86 243.053 56.9527 231.938 45.0312C220.212 32.4559 206.171 22.0757 190.656 14.6562C173.103 6.26211 153.944 1.81809 134.719 1.4375ZM136.125 5.65625C144.564 5.81199 152.987 6.7886 161.25 8.5625C176.444 11.8245 191.044 17.8036 204.188 26.0938C230.682 42.8056 251.008 68.8504 260.438 98.75C264.515 111.68 266.569 125.225 266.5 138.781C266.37 164.264 258.547 189.481 243.969 210.406C240.663 215.152 237.022 219.662 233.094 223.906C232.389 224.667 231.66 225.412 230.938 226.156C229.54 225.009 227.503 224.974 226.156 226.25C225.348 227.013 226.037 226.928 225.375 227C225.017 227.039 224.857 227.505 224.594 227.75C223.807 228.48 222.994 229.198 222.188 229.906C219.525 232.247 216.759 234.489 213.906 236.594C203.083 244.577 190.945 250.744 178.125 254.812C148.715 264.145 116.277 262.255 88 250C73.2746 243.618 59.7304 234.494 48.25 223.281C35.713 211.037 25.5697 196.341 18.75 180.188C4.92799 147.448 5.04433 109.311 20.125 77.0312C24.8507 66.9161 30.9996 57.4628 38.2812 49C47.1253 38.7213 57.6591 29.8817 69.3438 23C82.148 15.4589 96.312 10.2684 110.938 7.65625C119.258 6.17024 127.686 5.50051 136.125 5.65625Z" fill="#c61d1d" stroke="none"/>
</g>
<g opacity="0.982558">
<path d="M227.114 226.568C214.473 238.67 199.888 247.608 184.335 253.408C137.59 270.838 82.0997 259.926 44.3562 221.416C-5.94562 170.093-5.67755 89.1879 44.9549 40.71C95.5874-7.76781 177.411-5.46126 227.713 45.8619C278.014 97.185 277.746 178.09 227.114 226.568Z" fill="#fafafa" fill-rule="evenodd" stroke="none"/>
<path d="M131.281 3.6875C124.627 3.71884 117.981 4.2211 111.406 5.25C99.5804 7.10076 87.9912 10.5998 77.125 15.625C63.2542 22.0398 50.5808 30.9386 39.8438 41.8125C29.4678 52.3206 20.9491 64.6287 14.8125 78.0625C9.42628 89.8537 5.88577 102.481 4.28125 115.344C3.63114 120.555 3.2684 125.805 3.25 131.062C3.2316 136.32 3.56025 141.597 4.1875 146.812C9.34823 189.721 35.8957 227.781 73.7188 248.5C88.8866 256.809 105.645 262.192 122.812 264.281C152.198 267.858 182.592 261.558 207.844 246.031C213.773 242.385 219.393 238.275 224.656 233.719C225.783 232.744 226.908 231.764 228 230.75C228.275 230.495 228.014 230.741 229.625 229.219C231.015 227.909 231.078 225.778 229.906 224.312C230.093 224.125 230.283 223.939 230.469 223.75C231.989 222.207 233.468 220.62 234.906 219C241 212.136 246.324 204.573 250.75 196.531C261.219 177.51 266.462 155.88 266.156 134.219C266.113 131.124 265.926 128.024 265.656 124.938C264.379 110.344 260.602 95.9695 254.562 82.625C242.451 55.8655 221.307 33.4917 195.438 19.625C181.679 12.2501 166.637 7.29733 151.188 5.0625C144.602 4.10993 137.935 3.65616 131.281 3.6875ZM137.5 8C145.983 8.25748 154.442 9.3501 162.719 11.25C176.952 14.5171 190.629 20.2117 203 27.9688C230.236 45.0468 250.807 72.062 259.562 103.031C262.891 114.806 264.539 127.077 264.375 139.312C264.046 163.946 256.298 188.279 242.156 208.469C238.899 213.118 235.305 217.532 231.438 221.688C230.77 222.405 230.091 223.11 229.406 223.812C228.012 222.653 225.978 222.631 224.625 223.906C223.829 224.654 224.472 224.592 223.812 224.656C223.461 224.69 223.322 225.167 223.062 225.406C222.288 226.121 221.481 226.806 220.688 227.5C218.065 229.792 215.371 231.972 212.562 234.031C201.897 241.853 189.926 247.895 177.312 251.875C146.339 261.647 112.08 258.787 82.9375 244.562C69.6055 238.055 57.5461 229.229 47.125 218.688C34.4079 205.824 24.3605 190.139 18.125 173.156C7.07258 143.053 7.7223 109.013 20.9062 79.6875C25.6716 69.0879 31.9908 59.1951 39.5938 50.4062C48.3089 40.3317 58.6933 31.7024 70.1875 24.9688C83.0989 17.4049 97.3769 12.2577 112.125 9.75C120.499 8.32604 129.017 7.74252 137.5 8Z" fill="#000000" stroke="none"/>
</g>
</g>
<g filter="url(#Filter)" vectornator:shadowAngle="0.591002" vectornator:shadowColor="#000000" vectornator:shadowOffset="7" vectornator:shadowOpacity="1" vectornator:shadowRadius="7.09505">
<path d="M182.375 44.2188C181.047 44.1331 179.719 44.1472 178.406 44.2812C171.681 44.9683 165.052 48.0076 159.469 51.75C156.96 53.4315 154 55.9628 153.125 59C152.901 59.7771 152.683 60.5684 152.625 61.375C152.538 62.583 152.789 63.8052 153.125 64.9688C153.165 65.1057 153.231 65.2414 153.281 65.375C154.491 69.7334 158.985 72.3036 163.344 71.0938C166.475 70.2245 168.615 67.6222 169.156 64.625C169.96 64.0745 170.795 63.583 171.594 63.0938C174.105 61.5548 176.697 60.1887 179.594 59.5312C181.777 59.0358 184.789 58.4226 185.094 61.4375C185.133 61.823 185.09 62.1807 185.031 62.5625C184.93 63.219 184.803 63.8914 184.625 64.5312C184.347 65.5322 184.006 66.5152 183.594 67.4688C179.349 77.2798 172.511 85.8905 165.781 94.0938C163.515 96.8561 161.107 99.4612 158.594 102C157.874 102.727 157.16 103.473 156.344 104.094C156.021 104.339 155.704 104.607 155.375 104.844C155.322 104.882 155.295 104.905 155.25 104.938C155.217 104.956 155.189 104.982 155.156 105C155.129 105.019 155.083 105.048 155.062 105.062C154.94 105.133 154.771 105.226 154.688 105.312C154.478 105.531 153.918 105.734 154.062 106C154.994 107.718 156.303 109.22 157.594 110.688C157.699 110.808 157.884 110.563 158.031 110.5C158.092 110.474 158.161 110.44 158.219 110.406C158.263 110.381 158.3 110.338 158.344 110.312C158.358 110.305 158.384 110.296 158.406 110.281C158.701 110.113 159.019 109.952 159.312 109.781C159.844 109.472 160.316 109.095 160.812 108.75C161.833 108.171 162.869 107.642 163.938 107.156C166.816 105.846 169.739 104.598 172.656 103.375C175.339 102.25 178.057 101.184 180.812 100.25C184.591 98.9694 188.455 98.0425 192.281 96.9375C194.129 96.404 195.975 95.9937 197.688 95.0938C199.618 94.0794 201.362 92.6732 202.094 90.5625C202.239 90.1918 202.058 89.77 201.688 89.625C201.317 89.48 200.895 89.6606 200.75 90.0312C199.923 91.8758 197.99 92.8948 196.156 93.5312C194.089 94.2487 191.817 94.457 189.656 94.8125C186.349 95.3566 183.047 95.9202 179.781 96.6875C177.453 97.2347 175.165 97.8706 172.875 98.5625C172.676 98.6226 172.48 98.6891 172.281 98.75C173.342 97.7161 174.42 96.7017 175.469 95.6562C177.525 93.6073 179.566 91.5116 181.531 89.375C183.261 87.4946 184.931 85.5592 186.562 83.5938C188.558 81.1906 190.454 78.7436 192.25 76.1875C193.669 74.1676 195.072 72.0842 196.125 69.8438C198.066 65.7164 198.732 61.0648 197.688 56.5938C197.341 55.1119 196.791 53.6493 196.062 52.3125C195.308 50.9277 194.366 49.6468 193.219 48.5625C190.269 45.7746 186.358 44.4757 182.375 44.2188Z" fill="#b02121" stroke="none"/>
</g>
<g filter="url(#Filter_2)" vectornator:shadowAngle="0.591002" vectornator:shadowColor="#a30f0f" vectornator:shadowOffset="7" vectornator:shadowOpacity="0.760929" vectornator:shadowRadius="5.15109">
<path d="M133.125 79.5938C128.102 79.3458 122.869 80.1836 118 81.3438C108.759 83.5456 100.121 87.7246 92.3125 93.0938C86.6284 97.0023 81.3735 101.542 76.3125 106.219C73.2251 109.072 70.2126 111.993 67.4062 115.125C65.5397 117.208 63.776 119.424 62.4688 121.906C61.9514 122.912 61.6423 123.97 61.5625 125.031C61.3231 128.214 62.9835 131.385 66 132.938C70.022 135.007 74.9617 133.428 77.0312 129.406C78.004 127.399 79.7689 125.612 81.25 124C83.8498 121.17 86.6253 118.492 89.4375 115.875C93.228 112.348 97.089 108.891 101.281 105.844C107.799 101.106 115.108 97.3722 122.938 95.375C126.063 94.5777 129.391 94.0061 132.656 93.9375C132.542 94.3813 132.448 94.8557 132.375 95.0938C131.499 97.9641 130.057 100.673 128.781 103.375C128.28 104.436 127.792 105.506 127.281 106.562C122.116 117.259 115.666 127.764 105.125 133.875C103.483 134.827 101.802 135.675 100.125 136.562C99.2499 137.026 98.3676 137.492 97.5 137.969C94.8915 139.403 91.7442 140.699 91.7188 144.125C91.7156 144.55 91.7692 144.964 91.875 145.375C91.8926 145.444 92.1847 146.35 92.25 146.375C92.3312 146.516 92.4062 146.679 92.5 146.812C92.6695 147.053 92.8327 147.283 93.0312 147.5C93.4507 147.959 93.9727 148.327 94.5312 148.594C96.3736 149.473 98.693 149.074 100.594 148.719C104.609 147.969 108.308 146.191 112.219 145.094C113.717 144.673 115.257 144.399 116.781 144.094C120.01 143.446 123.236 142.87 126.5 142.438C130.528 141.903 134.592 141.58 138.656 141.531C142.523 141.485 146.383 141.626 150.125 142.688C152.044 143.232 153.935 144.17 155.406 145.531C155.972 146.055 156.639 146.671 156.781 147.469C157.12 149.36 155.36 151.931 154.438 153.375C154.157 153.814 153.882 154.253 153.594 154.688C150.026 160.064 145.796 165.062 141.375 169.75C131.2 180.539 118.993 189.458 105.656 195.938C93.3995 201.892 80.2027 205.906 67.0938 209.5C66.7083 209.598 66.4961 209.99 66.5938 210.375C66.6914 210.76 67.0833 211.004 67.4688 210.906C80.8657 207.791 94.3545 204.314 107 198.812C121.683 192.425 135.094 183.231 146.406 171.906C151.108 167.199 155.598 162.192 159.438 156.75C161.368 154.014 163.286 150.887 163.188 147.406C163.027 141.727 157.099 137.668 152.219 136.031C147.861 134.569 143.32 134.123 138.75 133.969C133.049 133.776 127.354 134.209 121.688 134.844C123.977 132.766 126.149 130.535 128.125 128.156C130.143 125.728 132.005 123.193 133.75 120.562C135.151 118.451 136.441 116.268 137.688 114.062C138.937 111.851 140.141 109.629 141.25 107.344C144.099 101.473 147.813 94.4203 145.75 87.75C145.326 86.3777 144.693 85.0556 143.781 83.9375C141.165 80.7277 137.074 79.7887 133.125 79.5938Z" fill="#000000" stroke="none"/>
</g>
<g filter="url(#Filter_3)" vectornator:shadowAngle="0.591002" vectornator:shadowColor="#a30f0f" vectornator:shadowOffset="8" vectornator:shadowOpacity="0.760929" vectornator:shadowRadius="8.25581">
<path d="M94.0938 97.2812C89.6563 96.4044 85.3456 99.2813 84.4688 103.719C83.324 110.6 81.5988 117.333 79.9062 124.094C79.4284 126.002 79.0543 127.932 78.5938 129.844C78.1316 131.762 77.4445 133.594 76.9375 135.5C76.2578 138.055 75.7048 140.654 75.0625 143.219C73.6693 148.782 72.2909 154.364 70.9375 159.938C67.0238 176.055 63.524 192.225 62.7812 208.844C62.7372 209.239 63.011 209.581 63.4062 209.625C63.8015 209.669 64.1747 209.395 64.2188 209C67.7584 189.228 75.1217 170.525 83.125 152.188C84.9525 148 87.0252 143.942 88.9062 139.781C89.7328 137.953 90.3809 136.042 91.2188 134.219C92.0705 132.365 92.9725 130.576 93.75 128.688C96.6502 121.644 98.877 114.329 100.562 106.906C101.439 102.469 98.5312 98.1581 94.0938 97.2812Z" fill="#000000" stroke="none"/>
</g>
</g>
</svg>
