<?xml version="1.0" encoding="UTF-8" standalone="no"?>
<!DOCTYPE svg PUBLIC "-//W3C//DTD SVG 1.1//EN" "http://www.w3.org/Graphics/SVG/1.1/DTD/svg11.dtd">

<!-- Created with Vectornator (http://vectornator.io/) -->
<svg height="100%" stroke-miterlimit="10" style="fill-rule:nonzero;clip-rule:evenodd;stroke-linecap:round;stroke-linejoin:round;" version="1.1" viewBox="0 0 595.35 419.58" width="100%" xml:space="preserve" xmlns="http://www.w3.org/2000/svg" xmlns:vectornator="http://vectornator.io" xmlns:xlink="http://www.w3.org/1999/xlink">
<metadata>
<vectornator:setting key="IsTimeLapseWatermarkDisabled" value="false"/>
<vectornator:setting key="UndoHistoryDisabled" value="true"/>
<vectornator:setting key="VNDimensionsVisible" value="true"/>
<vectornator:setting key="VNSnapToGuides" value="true"/>
<vectornator:setting key="WDCMYKEnabledKey" value="false"/>
<vectornator:setting key="WDDisplayWhiteBackground" value="false"/>
<vectornator:setting key="WDDynamicGuides" value="false"/>
<vectornator:setting key="WDGuidesVisible" value="true"/>
<vectornator:setting key="WDIsolateActiveLayer" value="false"/>
<vectornator:setting key="WDOutlineMode" value="false"/>
<vectornator:setting key="WDRulersVisible" value="true"/>
<vectornator:setting key="WDSnapToEdges" value="false"/>
<vectornator:setting key="WDSnapToGrid" value="false"/>
<vectornator:setting key="WDSnapToPoints" value="false"/>
<vectornator:setting key="WDUnits" value="Millimeters"/>
</metadata>
<defs/>
<g id="Layer-1" vectornator:layerName="Layer 1">
<path d="M147.867 214.559C147.867 128.133 217.954 58.0454 304.381 58.0454C390.807 58.0454 460.895 128.133 460.895 214.559C460.895 300.986 390.807 371.073 304.381 371.073C217.954 371.073 147.867 300.986 147.867 214.559Z" fill="#e5aa17" fill-rule="evenodd" opacity="1" stroke="none"/>
<path d="M311.635 114.254L311.635 125.925C319.332 126.745 325.893 128.322 331.444 130.656C336.933 133.053 341.727 136.649 345.827 141.444C349.045 145.103 351.568 148.888 353.335 152.736C355.101 156.647 355.984 160.18 355.984 163.397C355.984 166.993 354.659 170.084 352.073 172.734C349.423 175.383 346.269 176.645 342.547 176.645C335.482 176.645 330.939 172.86 328.858 165.227C326.46 156.269 320.783 150.276 311.699 147.311L311.699 192.164C320.593 194.624 327.722 196.832 333.021 198.851C338.32 200.87 343.052 203.772 347.215 207.557C351.694 211.531 355.101 216.263 357.498 221.751C359.895 227.239 361.094 233.295 361.094 239.793C361.094 247.994 359.202 255.691 355.353 262.819C351.505 269.948 345.827 275.815 338.383 280.357C330.876 284.899 322.044 287.612 311.762 288.432L311.762 315.306C311.762 319.533 311.32 322.624 310.5 324.579C309.68 326.535 307.85 327.481 305.075 327.481C302.488 327.481 300.659 326.661 299.649 325.084C298.577 323.507 298.072 321.047 298.072 317.766L298.072 288.684C289.682 287.738 282.301 285.782 276.055 282.754C269.747 279.726 264.511 276.004 260.284 271.462C256.058 266.983 252.966 262.315 250.948 257.457C248.929 252.599 247.92 247.868 247.92 243.2C247.92 239.73 249.244 236.639 251.957 233.863C254.67 231.087 258.013 229.7 262.051 229.7C265.268 229.7 268.044 230.457 270.252 231.971C272.46 233.485 274.037 235.63 274.857 238.342C276.813 244.209 278.516 248.751 279.904 251.842C281.355 254.997 283.5 257.836 286.401 260.422C289.303 263.009 293.152 264.964 298.009 266.352L298.009 216.199C288.357 213.55 280.345 210.585 273.848 207.304C267.35 204.024 262.114 199.356 258.076 193.363C254.039 187.307 252.02 179.547 252.02 170.084C252.02 157.72 255.931 147.563 263.817 139.677C271.703 131.792 283.058 127.187 297.946 125.862L297.946 114.443C297.946 108.387 300.217 105.359 304.759 105.359C309.301 105.422 311.635 108.324 311.635 114.254ZM297.883 188.19L297.883 146.869C291.827 148.635 287.158 151.033 283.752 153.998C280.345 156.963 278.705 161.379 278.705 167.372C278.705 173.049 280.282 177.339 283.436 180.241C286.654 183.206 291.448 185.856 297.883 188.19ZM311.635 220.237L311.635 267.488C318.89 266.037 324.505 263.135 328.479 258.782C332.453 254.429 334.409 249.319 334.409 243.452C334.409 237.207 332.517 232.349 328.668 228.943C324.757 225.473 319.079 222.571 311.635 220.237Z" fill="#ffffff" fill-rule="evenodd" opacity="1" stroke="none"/>
</g>
</svg>
